<svg xmlns="http://www.w3.org/2000/svg" viewBox="0 0 96 96">
  <path d="M23.507 67.334c3.124-.593 4.068-1.546 4.397-4.445.231-2.03 1.637-4.351 3.125-5.158 2.107-1.144 2.534-2.331 1.933-5.377-1.05-5.323.731-4.94 8.142 1.751 3.447 3.113 7.697 6.894 9.442 8.402l3.175 2.741-2.365-3.746c-2.301-3.646-2.288-3.83.484-6.821 1.566-1.691 2.444-3.484 1.95-3.985-.494-.5-.222-2.27.604-3.933.826-1.662 1.673-4.77 1.88-6.906.378-3.872.426-3.845 16.289 8.825 13.883 11.09 25.23 19.393 23.201 16.98-.364-.434-9.6-8.185-20.524-17.226L55.378 32l-8.012 9.007-8.012 9.006-4.075-2.37-4.075-2.372-15.118 10.51C7.771 61.563.556 66.663.051 67.115c-1.166 1.045 18.153 1.225 23.456.22Z"/>
</svg>